<svg id="Layer_1" data-name="Layer 1" xmlns="http://www.w3.org/2000/svg" viewBox="0 0 24 24">
<path d="M15.5,15A3.5,3.5,0,1,0,19,18.5,3.5,3.5,0,0,0,15.5,15Zm0,6A2.5,2.5,0,1,1,18,18.5,2.5,2.5,0,0,1,15.5,21Z" class="aw-theme-iconOutline" fill="#464646"/>
<path d="M23.855,18.249A9.564,9.564,0,0,0,15.494,13a9.565,9.565,0,0,0-8.362,5.249L7,18.49l.131.241A9.553,9.553,0,0,0,15.494,24a9.54,9.54,0,0,0,8.339-5.214L24,18.515ZM15.494,23a8.535,8.535,0,0,1-7.359-4.509A8.545,8.545,0,0,1,15.494,14a8.561,8.561,0,0,1,7.363,4.5A8.546,8.546,0,0,1,15.494,23Z" class="aw-theme-iconOutline" fill="#464646"/>
<path d="M1,9.569a8.5,8.5,0,1,1,17,0,8.661,8.661,0,0,1-.275,2.134l.954.317A9.675,9.675,0,0,0,19,9.569a9.5,9.5,0,1,0-19,0A9.569,9.569,0,0,0,5.04,18l.5-.865A8.566,8.566,0,0,1,1,9.569Z" class="aw-theme-iconOutline" fill="#464646"/>
<polygon points="5.083 8.777 4.015 9.829 7.676 13.54 14.966 6.115 13.896 5.064 7.674 11.402 5.083 8.777" class="aw-theme-iconOutline" fill="#464646"/></svg>