<?xml version="1.0"?>
<svg width="48" height="48" xmlns="http://www.w3.org/2000/svg" xmlns:svg="http://www.w3.org/2000/svg">
 <linearGradient id="SVGID_1_" x1="0.158804" x2="0.841053" y1="0.394015" y2="1.182673">
  <stop offset="0" stop-color="#FFFFFF"/>
  <stop offset="0.2214" stop-color="#F8F8F8"/>
  <stop offset="0.5415" stop-color="#E5E5E5"/>
  <stop offset="0.92" stop-color="#C6C6C6"/>
  <stop offset="1" stop-color="#BEBEBE"/>
 </linearGradient>
 <linearGradient id="SVGID_2_" x1="0.146448" x2="0.853552" y1="0.146448" y2="0.853552">
  <stop offset="0" stop-color="#73B4C8"/>
  <stop offset="0.1747" stop-color="#6AAEC3"/>
  <stop offset="0.4567" stop-color="#529EB5"/>
  <stop offset="0.8089" stop-color="#2C839F"/>
  <stop offset="1" stop-color="#147391"/>
 </linearGradient>
 <g class="layer">
  <title>Layer 1</title>
  <rect fill="none" height="48" id="svg_1" width="48" x="0"/>
  <polygon fill="url(#SVGID_1_)" id="svg_2" points="1.1,34.5 12.6,14.7 15.5,19.7 9.9,29.5 30.1,29.5 17.1,6.8 20,1.8 38.9,34.5  "/>
  <path d="m20,2.8l18,31.2l-36,0l10.6,-18.3l2.3,4l-5.9,10.3l22,0l-13.3,-23.2l2.3,-4m0,-2l-0.9,1.5l-2.3,4l-0.3,0.5l0.3,0.5l12.5,21.7l-18.6,0l5.1,-8.8l0.3,-0.5l-0.3,-0.5l-2.3,-4l-0.9,-1.5l-0.9,1.5l-10.6,18.3l-0.8,1.5l1.7,0l36,0l1.7,0l-0.9,-1.5l-18,-31.2l-0.8,-1.5l0,0z" fill="#464646" id="svg_3"/>
  <circle cx="35" cy="35" fill="url(#SVGID_2_)" id="svg_4" r="12.5" stroke="#464646" stroke-linecap="round" stroke-linejoin="round" stroke-miterlimit="10"/>
  <path d="m35,22.9c6.7,0 12.1,5.4 12.1,12.1s-5.4,12.1 -12.1,12.1s-12.1,-5.4 -12.1,-12.1s5.4,-12.1 12.1,-12.1m0,-0.9c-7.2,0 -13,5.8 -13,13s5.8,13 13,13s13,-5.8 13,-13s-5.8,-13 -13,-13l0,0z" fill="#464646" id="svg_5"/>
  <path d="m35,40.5c-0.8,0 -1.5,-0.7 -1.5,-1.5l0,-1.7c0,-1.7 1,-3.3 2.5,-4c1,-0.5 1.6,-1.6 1.4,-2.7c-0.2,-1 -1,-1.8 -2,-2c-0.2,0 -0.3,0 -0.5,0c-0.6,0 -1.2,0.2 -1.6,0.6c-0.6,0.5 -0.9,1.2 -0.9,1.9c0,0.8 -0.7,1.5 -1.5,1.5s-1.5,-0.7 -1.5,-1.5c0,-1.6 0.7,-3.2 2,-4.2c1,-0.8 2.2,-1.3 3.5,-1.3c0.3,0 0.7,0 1,0.1c2.2,0.4 4,2.2 4.4,4.4c0.4,2.5 -0.8,4.9 -3.1,6c-0.5,0.2 -0.8,0.7 -0.8,1.3l0,1.6c0.1,0.8 -0.6,1.5 -1.4,1.5z" fill="#FFFFFF" id="svg_6"/>
  <path d="m35,26c0.3,0 0.6,0 0.9,0.1c2,0.4 3.7,2 4,4c0.4,2.3 -0.8,4.5 -2.8,5.4c-0.7,0.3 -1.1,1 -1.1,1.7l0,1.8c0,0.6 -0.4,1 -1,1c-0.6,0 -1,-0.4 -1,-1l0,-1.7c0,-1.5 0.9,-2.9 2.3,-3.5c1.3,-0.6 1.9,-1.9 1.7,-3.3c-0.2,-1.2 -1.2,-2.2 -2.4,-2.4c-0.2,0 -0.4,0 -0.6,0c-0.7,0 -1.4,0.2 -1.9,0.7c-0.7,0.5 -1.1,1.3 -1.1,2.2c0,0.6 -0.4,1 -1,1c-0.6,0 -1,-0.4 -1,-1c0,-1.5 0.7,-2.9 1.8,-3.8c0.9,-0.8 2,-1.2 3.2,-1.2m0,-1l0,0c-1.4,0 -2.8,0.5 -3.9,1.4c-1.3,1.1 -2.1,2.8 -2.1,4.6c0,1.1 0.9,2 2,2c1.1,0 2,-0.9 2,-2c0,-0.6 0.3,-1.2 0.7,-1.5c0.4,-0.3 0.8,-0.5 1.3,-0.5c0.1,0 0.3,0 0.4,0c0.8,0.1 1.4,0.8 1.6,1.6c0.2,0.9 -0.3,1.8 -1.1,2.2c-1.7,0.8 -2.8,2.5 -2.8,4.5l0,1.7c0,1.1 0.9,2 2,2c1.1,0 2,-0.9 2,-2l0,-1.7c0,-0.4 0.2,-0.7 0.5,-0.8c2.5,-1.1 3.9,-3.8 3.4,-6.5c-0.4,-2.4 -2.4,-4.4 -4.8,-4.8c-0.5,-0.2 -0.8,-0.2 -1.2,-0.2l0,0z" fill="#147391" id="svg_7"/>
  <path d="m35,45c-0.5,0 -1,-0.2 -1.4,-0.6c-0.4,-0.4 -0.6,-0.9 -0.6,-1.4c0,-0.5 0.2,-1.1 0.6,-1.4c0.4,-0.4 0.9,-0.6 1.4,-0.6c0.5,0 1.1,0.2 1.4,0.6c0.4,0.4 0.6,0.9 0.6,1.4c0,0.5 -0.2,1 -0.6,1.4c-0.4,0.4 -0.9,0.6 -1.4,0.6z" fill="#FFFFFF" id="svg_8"/>
  <path d="m35,41.5c0.4,0 0.8,0.1 1.1,0.4c0.3,0.3 0.4,0.7 0.4,1.1c0,0.4 -0.2,0.8 -0.4,1.1c-0.3,0.3 -0.7,0.5 -1.1,0.5s-0.8,-0.2 -1.1,-0.5c-0.3,-0.3 -0.4,-0.7 -0.4,-1.1c0,-0.4 0.2,-0.8 0.4,-1.1c0.3,-0.3 0.7,-0.4 1.1,-0.4m0,-1c-0.7,0 -1.3,0.3 -1.8,0.7c-0.5,0.5 -0.7,1.1 -0.7,1.8c0,0.7 0.3,1.3 0.7,1.8c0.5,0.5 1.1,0.7 1.8,0.7c0.7,0 1.3,-0.3 1.8,-0.7c0.5,-0.5 0.7,-1.1 0.7,-1.8c0,-0.7 -0.3,-1.3 -0.7,-1.8c-0.5,-0.4 -1.1,-0.7 -1.8,-0.7l0,0z" fill="#147391" id="svg_9"/>
  <text fill="#005fbf" font-family="Tahoma" font-size="27" font-weight="600" id="e1_texte" stroke="teal" stroke-width="0px" x="9.159878" y="20.257593">лЪла</text>
 </g>
</svg>