<svg xmlns="http://www.w3.org/2000/svg" xmlns:xlink="http://www.w3.org/1999/xlink" version="1.1" id="Layer_1" x="0px" y="0px" viewBox="0 0 48 48" enable-background="new 0 0 48 48" xml:space="preserve" width="100%" height="100%" ><rect id="svgEditorBackground" x="0" y="0" width="48" height="48" style="fill:none; stroke: none;"/><defs id="svgEditorDefs"><radialGradient cx="50%" cy="50%" fx="50%" fy="50%" id="rgrd2-white-blue" r="50%"><stop offset="0%" style="stop-color:white;stop-opacity:0"/><stop offset="100%" style="stop-color:blue;stop-opacity:1"/></radialGradient><radialGradient cx="60%" cy="60%" fx="75%" fy="75%" gradientUnits="objectBoundingBox" id="rgrd6-a" r="45%"><stop offset="0%" stop-color="#a595d8"/><stop offset="20%" stop-color="#a595d8"/><stop offset="40%" stop-color="#8979ba"/><stop offset="60%" stop-color="#7363a5"/><stop offset="80%" stop-color="#605091"/><stop offset="100%" stop-color="#3e3168"/></radialGradient><linearGradient gradientUnits="objectBoundingBox" id="lgrd2-black-white" spreadMethod="pad" x1="0%" x2="100%" y1="0%" y2="100%"><stop offset="0%" stop-color="black"/><stop offset="100%" stop-color="white"/></linearGradient><linearGradient id="lgrd3-fr-h"><stop offset="0%" stop-color="blue"/><stop offset="50%" stop-color="black" stop-opacity="0"/><stop offset="100%" stop-color="red"/></linearGradient><linearGradient id="lgrd3-fr-v" x1="0" x2="0" y1="0" y2="100%"><stop offset="0%" stop-color="blue"/><stop offset="50%" stop-color="black" stop-opacity="0"/><stop offset="100%" stop-color="red"/></linearGradient></defs>
<polygon fill="#3C91AF" points="28.5,32.4 28.5,43.9 38.5,38.1 38.5,26.6 "/>
<polygon fill="#3C91AF" points="18.5,15.1 18.5,26.6 28.5,20.8 28.5,9.3 "/>
<linearGradient id="SVGID_1_" gradientUnits="userSpaceOnUse" x1="23.4998" y1="21.5768" x2="33.5002" y2="31.5771">
	<stop offset="0" style="stop-color:#CDE6EB"/>
	<stop offset="0.2214" style="stop-color:#C6E2E8"/>
	<stop offset="0.5419" style="stop-color:#B3D8E1"/>
	<stop offset="0.9212" style="stop-color:#93C7D5"/>
	<stop offset="1" style="stop-color:#8CC3D2"/>
</linearGradient>
<polygon fill="url(#SVGID_1_)" points="38.5,26.6 28.5,32.4 18.5,26.6 28.5,20.8 "/>
<linearGradient id="SVGID_2_" gradientUnits="userSpaceOnUse" x1="3.7992" y1="13.9834" x2="31.0927" y2="41.2769">
	<stop offset="0" style="stop-color:#AFD7E1"/>
	<stop offset="0.1588" style="stop-color:#A4D0DC"/>
	<stop offset="0.7059" style="stop-color:#80BCCE"/>
	<stop offset="1" style="stop-color:#73B4C8"/>
</linearGradient>
<polygon fill="url(#SVGID_2_)" points="18.5,26.6 18.5,26.6 18.5,26.6 18.5,15.1 8.5,9.3 8.5,32.3 28.5,43.9 28.5,32.4 "/>
	<line fill="none" stroke="#147391" stroke-linejoin="round" stroke-miterlimit="10" x1="18.5" y1="26.6" x2="8.5" y2="20.8"/>
	<line fill="none" stroke="#147391" stroke-linejoin="round" stroke-miterlimit="10" x1="28.5" y1="32.4" x2="28.5" y2="43.9"/>
<line fill="none" stroke="#147391" stroke-linejoin="round" stroke-miterlimit="10" x1="18.5" y1="38.1" x2="18.5" y2="15.1"/>
<linearGradient id="SVGID_3_" gradientUnits="userSpaceOnUse" x1="13.4998" y1="4.2828" x2="23.5002" y2="14.2831">
	<stop offset="0" style="stop-color:#CDE6EB"/>
	<stop offset="0.2214" style="stop-color:#C6E2E8"/>
	<stop offset="0.5419" style="stop-color:#B3D8E1"/>
	<stop offset="0.9212" style="stop-color:#93C7D5"/>
	<stop offset="1" style="stop-color:#8CC3D2"/>
</linearGradient>
<polygon fill="url(#SVGID_3_)" points="8.5,9.3 18.5,3.5 28.5,9.3 18.5,15.1 "/>
<polyline fill="none" stroke="#147391" stroke-linejoin="round" stroke-miterlimit="10" points="28.5,9.3 18.5,15.1 8.5,9.3 "/>
<polyline fill="none" stroke="#147391" stroke-linejoin="round" stroke-miterlimit="10" points="38.5,26.6 28.5,32.4 18.5,26.6   28.5,20.8 "/>
<path fill="none" stroke="#464646" stroke-linejoin="round" stroke-miterlimit="10" d="M28.5,20.8l0-11.5l-10-5.8l-10,5.8l0,23  l20,11.6l10-5.8V26.6L28.5,20.8z"/>
<text style="fill:firebrick; font-family:Tahoma; font-size:33.00px; text-anchor: start; fill-opacity:0.75; stroke-opacity:0.50;font-weight:600;stroke:maroon;stroke-width:0px;" x="0.4291103482246399" y="34.185646057128906" id="e5_texte">Сб</text></svg>