<svg xmlns="http://www.w3.org/2000/svg" xmlns:xlink="http://www.w3.org/1999/xlink" version="1.1" id="Layer_1" x="0px" y="0px" viewBox="0 0 48 48" enable-background="new 0 0 48 48" xml:space="preserve" width="100%" height="100%" ><rect id="svgEditorBackground" x="0" y="0" width="48" height="48" style="fill:none; stroke: none;"/>
<linearGradient id="SVGID_1_" gradientUnits="userSpaceOnUse" x1="6.5002" y1="4.5001" x2="45.5129" y2="43.5128">
	<stop offset="0" style="stop-color:#FFFFFF"/>
	<stop offset="0.2214" style="stop-color:#F8F8F8"/>
	<stop offset="0.5415" style="stop-color:#E5E5E5"/>
	<stop offset="0.92" style="stop-color:#C6C6C6"/>
	<stop offset="1" style="stop-color:#BEBEBE"/>
</linearGradient>

<linearGradient id="SVGID_2_" gradientUnits="userSpaceOnUse" x1="-4.25" y1="11.25" x2="21.25" y2="36.75" gradientTransform="">
	<stop offset="0" style="stop-color:#F2F2F2"/>
	<stop offset="0.5" style="stop-color:#CCCCCC"/>
	<stop offset="0.6296" style="stop-color:#C7C7C7"/>
	<stop offset="0.7792" style="stop-color:#B9B9B9"/>
	<stop offset="0.9383" style="stop-color:#A2A2A2"/>
	<stop offset="0.99" style="stop-color:#999999"/>
</linearGradient>
<linearGradient id="SVGID_3_" gradientUnits="userSpaceOnUse" x1="6.125" y1="4.375" x2="45.3879" y2="43.6379">
	<stop offset="0" style="stop-color:#73B4C8"/>
	<stop offset="0.1747" style="stop-color:#6AAEC3"/>
	<stop offset="0.4567" style="stop-color:#529EB5"/>
	<stop offset="0.8089" style="stop-color:#2C839F"/>
	<stop offset="1" style="stop-color:#147391"/>
</linearGradient>
<polygon fill="url(#SVGID_3_)" points="41.5 47.5 10 47.5 10 0.5 41.5 0.5" transform="matrix(1.104 0 0 1 -4.381 0)" style="fill-opacity:0.26;"/>




<polygon fill="none" stroke="#464646" stroke-miterlimit="10" points="41.5 47.5 6.50001 47.5 6.50001 0.5 41.5 0.5" style="stroke-width:0.5px;"/>
<line fill="none" stroke="#5A5A5A" x1="41.549598693847656" y1="38.6698664381037" x2="6.543580055236816" y2="38.6697672559748" id="e3_line" style="stroke-width:0.4px;"/><line fill="none" stroke="#5A5A5A" x1="13.34802219313698" y1="47.56119918823242" x2="13.322421759787371" y2="38.999000549316406" id="e4_line" transform="matrix(0.712185 0 0 1 9.07469 -0.246998)" style="stroke-width:0.5px;"/><line fill="none" stroke="#5A5A5A" x1="31.74345849850844" y1="47.89052963256836" x2="31.71791910031508" y2="42.4557991027832" id="e5_line" transform="matrix(0.712185 0 0 1 9.07469 -0.246998)" style="stroke-width:0.4px;"/><line fill="none" stroke="#5A5A5A" x1="13.015399932861328" y1="42.3739680006037" x2="45.35879898071289" y2="42.37528025646308" id="e6_line" transform="matrix(0.712185 0 0 1 9.07469 -0.246998)" style="stroke-width:0.4px;"/><line fill="none" stroke="#5A5A5A" x1="45.629859924316406" y1="44.267642974853516" x2="31.6117" y2="44.267" id="e2_line" transform="matrix(0.712185 0 0 1 9.07469 -0.246998)" style="stroke-width:0.3px;"/><line fill="none" stroke="#5A5A5A" x1="18.4143" y1="42.1279" x2="6.296579837799069" y2="42.12774658203125" id="e7_line" style="stroke-width:0.4px;"/><line fill="none" stroke="#5A5A5A" x1="18.74363530139825" y1="40.975250244140625" x2="6.625913743781063" y2="40.97509765625" id="e8_line" style="stroke-width:0.3px;"/><line fill="none" stroke="#5A5A5A" x1="8.86355" y1="47.5608" x2="8.848917961120605" y2="38.505104064941406" id="e9_line" style="stroke-width:0.2px;"/><line fill="none" stroke="#5A5A5A" x1="14.132897253228215" y1="47.72547149658203" x2="14.118265028191594" y2="38.669776916503906" id="e10_line" style="stroke-width:0.2px;"/><line fill="none" stroke="#5A5A5A" x1="16.27356898326972" y1="47.72547912597656" x2="16.25893580455878" y2="38.66978454589844" id="e1_line" style="stroke-width:0.2px;"/><line fill="none" stroke="#5A5A5A" x1="18.743635177612305" y1="45.77658089785164" x2="6.625913143157959" y2="45.77642830996101" id="e11_line" style="stroke-width:0.1px;"/><line fill="none" stroke="#5A5A5A" x1="18.743635177612305" y1="44.62393197207039" x2="6.625912666320801" y2="44.62377938417976" id="e12_line" style="stroke-width:0.1px;"/><line fill="none" stroke="#5A5A5A" x1="18.743635177612305" y1="43.31963357119148" x2="6.625912189483643" y2="43.319480983300856" id="e13_line" style="stroke-width:0.1px;"/></svg>