<?xml version="1.0"?>
<svg width="48" height="48" xmlns="http://www.w3.org/2000/svg" xmlns:svg="http://www.w3.org/2000/svg">
 <linearGradient id="SVGID_1_" x1="0.1588" x2="0.84105" y1="0.39402" y2="1.18267">
  <stop offset="0" stop-color="#FFFFFF"/>
  <stop offset="0.2214" stop-color="#F8F8F8"/>
  <stop offset="0.5415" stop-color="#E5E5E5"/>
  <stop offset="0.92" stop-color="#C6C6C6"/>
  <stop offset="1" stop-color="#BEBEBE"/>
 </linearGradient>
 <linearGradient id="SVGID_2_" x1="0.14645" x2="0.85355" y1="0.14645" y2="0.85355">
  <stop offset="0" stop-color="#73B4C8"/>
  <stop offset="0.1747" stop-color="#6AAEC3"/>
  <stop offset="0.4567" stop-color="#529EB5"/>
  <stop offset="0.8089" stop-color="#2C839F"/>
  <stop offset="1" stop-color="#147391"/>
 </linearGradient>
 <g class="layer">
  <title>Layer 1</title>
  <rect fill="none" height="48" id="svg_1" width="48" x="0"/>
  <polygon fill="url(#SVGID_1_)" id="svg_2" points="1.1,34.5 12.6,14.7 15.5,19.7 9.9,29.5 30.1,29.5 17.1,6.8 20,1.8 38.9,34.5  "/>
  <path d="m20,2.8l18,31.2l-36,0l10.6,-18.3l2.3,4l-5.9,10.3l22,0l-13.3,-23.2l2.3,-4m0,-2l-0.9,1.5l-2.3,4l-0.3,0.5l0.3,0.5l12.5,21.7l-18.6,0l5.1,-8.8l0.3,-0.5l-0.3,-0.5l-2.3,-4l-0.9,-1.5l-0.9,1.5l-10.6,18.3l-0.8,1.5l1.7,0l36,0l1.7,0l-0.9,-1.5l-18,-31.2l-0.8,-1.5l0,0z" fill="#464646" id="svg_3"/>
  <circle cx="35" cy="35" fill="url(#SVGID_2_)" id="svg_4" r="12.5" stroke="#464646" stroke-linecap="round" stroke-linejoin="round" stroke-miterlimit="10"/>
  <path d="m42,32" fill="none" id="svg_5" stroke="#FFFFFF" stroke-miterlimit="10" stroke-width="2"/>
  <polygon fill="#FFFFFF" id="svg_6" points="26.4,36.5 28.8,34.6 32.5,39.1 41.7,27.7 44,29.6 32.5,43.8  "/>
  <path d="m41.8,28.4l1.6,1.3l-10.9,13.3l-5.4,-6.4l1.5,-1.3l3.8,4.6l9.4,-11.5m-0.2,-1.4l-0.6,0.8l-8.5,10.5l-3,-3.6l-0.6,-0.8l-0.8,0.6l-1.5,1.3l-0.8,0.6l0.6,0.8l5.4,6.4l0.8,0.9l0.8,-0.9l10.8,-13.4l0.6,-0.8l-0.8,-0.6l-1.6,-1.3l-0.8,-0.5l0,0z" fill="#147391" id="svg_7"/>
  <text fill="#007f3f" font-family="Tahoma" font-size="27" font-weight="600" id="e1_texte" stroke="teal" stroke-width="0px" x="6.21251" y="20.257593">ИИ</text>
 </g>
</svg>