<svg xmlns="http://www.w3.org/2000/svg" xmlns:xlink="http://www.w3.org/1999/xlink" id="Layer_1" data-name="Layer 1" viewBox="0 0 48 48" width="100%" height="100%" ><rect id="svgEditorBackground" x="0" y="0" width="48" height="48" style="fill: none; stroke: none;"/><defs id="svgEditorDefs"><path id="svgEditorClosePathDefs" style="stroke:black;stroke-width:1px;fill:rosybrown;"/></defs>
    <linearGradient id="Dark_Blue_Grad" data-name="Dark Blue Grad" x1="31.94" y1="71.94" x2="34.061" y2="74.061" gradientTransform="translate(109 -13) rotate(90)" gradientUnits="userSpaceOnUse">
      <stop offset="0" stop-color="#73b4c8"/>
      <stop offset="0.175" stop-color="#6aaec3"/>
      <stop offset="0.457" stop-color="#529eb5"/>
      <stop offset="0.809" stop-color="#2c839f"/>
      <stop offset="1" stop-color="#147391"/>
    </linearGradient>
    <linearGradient id="Dark_Blue_Grad-2" x1="41.94" y1="71.94" x2="44.061" y2="74.061" xlink:href="#Dark_Blue_Grad"/>
    <linearGradient id="Dark_Blue_Grad-3" x1="41.94" y1="65.94" x2="44.061" y2="68.061" xlink:href="#Dark_Blue_Grad"/>
    <linearGradient id="Dark_Blue_Grad-4" x1="41.94" y1="77.94" x2="44.061" y2="80.061" xlink:href="#Dark_Blue_Grad"/>
    <linearGradient id="Dark_Blue_Grad-5" x1="36.94" y1="68.94" x2="39.061" y2="71.061" xlink:href="#Dark_Blue_Grad"/>
    <linearGradient id="Dark_Blue_Grad-6" x1="36.94" y1="74.94" x2="39.061" y2="77.061" xlink:href="#Dark_Blue_Grad"/>
    <linearGradient id="Dark_Blue_Grad-7" x1="31.94" y1="95.94" x2="34.061" y2="98.061" xlink:href="#Dark_Blue_Grad"/>
    <linearGradient id="Dark_Blue_Grad-8" x1="41.94" y1="95.94" x2="44.061" y2="98.061" xlink:href="#Dark_Blue_Grad"/>
    <linearGradient id="Dark_Blue_Grad-9" x1="41.94" y1="89.94" x2="44.061" y2="92.061" xlink:href="#Dark_Blue_Grad"/>
    <linearGradient id="Dark_Blue_Grad-10" x1="41.94" y1="101.94" x2="44.061" y2="104.061" xlink:href="#Dark_Blue_Grad"/>
    <linearGradient id="Dark_Blue_Grad-11" x1="36.94" y1="92.94" x2="39.061" y2="95.061" xlink:href="#Dark_Blue_Grad"/>
    <linearGradient id="Dark_Blue_Grad-12" x1="36.94" y1="98.94" x2="39.061" y2="101.061" xlink:href="#Dark_Blue_Grad"/>
    <linearGradient id="linear-gradient" x1="9.25" y1="7.75" x2="14.75" y2="13.25" gradientUnits="userSpaceOnUse">
      <stop offset="0" stop-color="#e4e4e4"/>
      <stop offset="0.201" stop-color="#ddd"/>
      <stop offset="0.492" stop-color="#cacaca"/>
      <stop offset="0.836" stop-color="#ababab"/>
      <stop offset="1" stop-color="#999"/>
    </linearGradient>
    <linearGradient id="linear-gradient-2" x1="33.25" y1="7.75" x2="38.75" y2="13.25" xlink:href="#linear-gradient"/>
    <linearGradient id="Dark_Blue_Grad-13" x1="10.75" y1="28.25" x2="37.25" y2="54.75" gradientTransform="matrix(1, 0, 0, 1, 0, 0)" xlink:href="#Dark_Blue_Grad"/>
  
  
  
  
  
  
  
  
  
  
  
  
  
  
  
  
<polygon style="stroke:black;fill:url(#Dark_Blue_Grad-13);stroke-width:1px;" id="e1_polygon" points="21.67 47.5283 14.3156 35.9828 0.397728 35.9037 0.397738 47.6074"/><polygon style="stroke:black;fill:url(#Dark_Blue_Grad-13);stroke-width:1px;" id="e4_polygon" points="47.2915 47.3701 47.2914 35.9828 31.871 35.9828 24.5958 47.5283"/><text dy="-0.5em" style="fill:black;font-family:Arial;font-size:20px;" id="e4_text"><textPath id="e3_textPath" xlink:href="#e2_path"></textPath></text><path d="M21.554,47.491157261328055h3.3210000000000015" style="fill:none;stroke:black;stroke-width:1px;" id="e12_pathH"/><path d="M14.27915726132805,36.024320540039625q9.330999999999998,-7.433500000000002,17.7132,-0.20000000000000284" style="fill:none;stroke:black;stroke-width:1px;" id="e13_arc2"/><polygon style="stroke:black;fill:url(#linear-gradient-2);stroke-width:1px;" id="e14_polygon" points="32.0292 1.42544 25.782 13.5244 28.9452 17.3203 34.4016 17.3993 40.4115 5.77473"/><path d="M22.5398,17.4784a23.0953,23.0953,0,0,0,-7.6707,15.8157" style="fill: none; stroke: black; stroke-width: 1px;stroke-dasharray:4px, 2px;" id="e15_circleArc"/><path d="M33.4527,21.6696a25.499,25.499,0,0,1,-1.1863,10.6756" style="fill:none;stroke:black;stroke-width:1px;stroke-dasharray:4px, 2px;" id="e16_circleArc"/><path d="M27.0473,21.6696q-2.6887,3.1631,-3.4795,8.4614" style="fill:none;stroke:black;stroke-width:1px;stroke-dasharray:4px, 2px;" id="e17_arc2"/></svg>