<?xml version="1.0"?>
<svg width="48" height="48" xmlns="http://www.w3.org/2000/svg" xmlns:svg="http://www.w3.org/2000/svg" xmlns:se="http://svg-edit.googlecode.com" xmlns:xlink="http://www.w3.org/1999/xlink" data-name="Layer 1">
 <linearGradient id="linear-gradient" x1="-0.05" x2="1.05" y1="0.04167" y2="0.95833">
  <stop offset="0" stop-color="#fff"/>
  <stop offset="0.305" stop-color="#fbfbfb"/>
  <stop offset="0.584" stop-color="#f0f0f0"/>
  <stop offset="0.852" stop-color="#dedede"/>
  <stop offset="1" stop-color="#d0d0d0"/>
 </linearGradient>
 <linearGradient data-name="Dark Blue Grad" id="Dark_Blue_Grad" x1="-0.04412" x2="0.80882" y1="0.04688" y2="0.95313">
  <stop offset="0" stop-color="#73b4c8"/>
  <stop offset="0.175" stop-color="#6aaec3"/>
  <stop offset="0.457" stop-color="#529eb5"/>
  <stop offset="0.809" stop-color="#2c839f"/>
  <stop offset="1" stop-color="#147391"/>
 </linearGradient>
 <linearGradient data-name="paper gradient" id="paper_gradient" x1="0.15822" x2="0.8417" y1="0.39415" y2="1.18262">
  <stop offset="0" stop-color="#73B4C8"/>
  <stop offset="0.1747" stop-color="#6AAEC3"/>
  <stop offset="0.4567" stop-color="#529EB5"/>
  <stop offset="0.8089" stop-color="#2C839F"/>
  <stop offset="1" stop-color="#147391"/>
 </linearGradient>
 <linearGradient id="Dark_Blue_Grad-2" x1="13.5" x2="28" xlink:href="#Dark_Blue_Grad" y1="32.25" y2="46.75"/>
 <g class="layer" display="inline">
  <title>Layer 1</title>
  <g id="svg_11">
   <rect fill="url(#linear-gradient)" height="42" id="svg_1" stroke="#464646" stroke-miterlimit="10" width="35" x="2.15899" y="2.15899"/>
   <rect fill="none" height="11" id="svg_2" stroke="#6e6e6e" width="11" x="6.15899" y="5.15899"/>
   <rect fill="none" height="11" id="svg_3" stroke="#6e6e6e" width="11" x="6.06682" y="18.15899"/>
   <rect fill="none" height="11" id="svg_4" stroke="#6e6e6e" width="11" x="6.06682" y="31.15899"/>
   <line fill="none" id="svg_5" stroke="#147391" stroke-miterlimit="10" x1="19.56682" x2="33.56682" y1="10.15899" y2="10.15899"/>
   <line fill="none" id="svg_6" stroke="#147391" stroke-miterlimit="10" x1="19.56682" x2="31.56682" y1="23.15899" y2="23.15899"/>
   <polyline fill="none" id="svg_7" points="8.658985942602158,10.658986568450928 11.158985942602158,13.158986568450928 14.658985942602158,7.658986568450928 " stroke="#147391" stroke-miterlimit="10"/>
   <polyline fill="none" id="svg_8" points="8.566819995641708,23.658986568450928 11.066819995641708,26.158986568450928 14.566819995641708,20.658986568450928 " stroke="#147391" stroke-miterlimit="10"/>
   <polyline fill="none" id="svg_9" points="8.566819995641708,36.658984661102295 11.066819995641708,39.158984661102295 14.566819995641708,33.658984661102295 " stroke="#147391" stroke-miterlimit="10"/>
   <line fill="none" id="svg_13" stroke="#147391" stroke-miterlimit="10" x1="19.54312" x2="33.54312" y1="37.00771" y2="37.00771"/>
  </g>
 </g>
 <g class="layer" display="inline">
  <title>Layer 2</title>
  <g id="svg_10">
   <polygon fill="url(#paper_gradient)" id="svg_1" points="18.399995443990974,47.41396775877274 27.050447252931008,33.1120880414137 29.235499455282024,36.74349874415566 24.98607277339397,43.8049356764368 40.27691025171316,43.8049356764368 30.478496343142524,27.4400995920264 32.62734042192096,23.805083658871354 46.859213337988876,47.41396775877274 18.399995443990974,47.41396775877274 "/>
   <path d="m32.630364,24.532667l13.57643,22.520356l-27.152868,0l7.995014,-13.219159l1.750606,2.909599l-4.465893,7.422339l16.593415,0l-10.014131,-16.72642l1.717419,-2.906716m-0.006784,-1.455159l-0.649406,1.100032l-1.718172,2.905988l-0.211192,0.360904l0.213453,0.356574l9.367739,15.64299l-13.987497,0l3.814979,-6.340346l0.216469,-0.360904l-0.216469,-0.360904l-1.750606,-2.909599l-0.651668,-1.082711l-0.654683,1.082711l-7.995014,13.219887l-0.655437,1.082711l29.766334,0l-0.652422,-1.082711l-13.57643,-22.520356l-0.659969,-1.094255l0,0l-0.000009,-0.000009z" fill="#464646" id="svg_2"/>
  </g>
 </g>
</svg>