<?xml version="1.0"?>
<svg width="48" height="48" xmlns="http://www.w3.org/2000/svg" xmlns:svg="http://www.w3.org/2000/svg" xmlns:se="http://svg-edit.googlecode.com" xmlns:xlink="http://www.w3.org/1999/xlink" data-name="Layer 1">
 <linearGradient data-name="paper gradient" id="paper_gradient" x1="0.158221" x2="0.841699" y1="0.394154" y2="1.182616">
  <stop offset="0" stop-color="#fff"/>
  <stop offset="0.221" stop-color="#f8f8f8"/>
  <stop offset="0.541" stop-color="#e5e5e5"/>
  <stop offset="0.92" stop-color="#c6c6c6"/>
  <stop offset="1" stop-color="#bebebe"/>
 </linearGradient>
 <linearGradient id="linear-gradient" x1="26.161" x2="43.839" xlink:href="#paper_gradient" y1="26.161" y2="43.839"/>
 <g class="layer">
  <title>Layer 1</title>
  <polygon fill="url(#paper_gradient)" id="svg_1" points="1.133 34.5 12.602 14.686 15.499 19.717 9.865 29.5 30.138 29.5 17.147 6.828 19.996 1.792 38.865 34.5 1.133 34.5"/>
  <path d="m20,2.8l18,31.2l-36,0l10.6,-18.314l2.321,4.031l-5.921,10.283l22,0l-13.277,-23.173l2.277,-4.027m-0.009,-2.016l-0.861,1.524l-2.278,4.026l-0.28,0.5l0.283,0.494l12.42,21.672l-18.545,0l5.058,-8.784l0.287,-0.5l-0.287,-0.5l-2.321,-4.031l-0.864,-1.5l-0.868,1.5l-10.6,18.315l-0.869,1.5l39.465,0l-0.865,-1.5l-18,-31.2l-0.875,-1.516l0,0z" fill="#464646" id="svg_2"/>
  <circle cx="35" cy="35" fill="url(#linear-gradient)" id="svg_3" r="12.5" stroke="#464646" stroke-miterlimit="10"/>
  <path d="m35,40.5a1.5,1.5 0 0 1 -1.5,-1.5l0,-1.73a4.416,4.416 0 0 1 2.547,-4a2.5,2.5 0 0 0 -0.581,-4.729a2.757,2.757 0 0 0 -0.466,-0.041a2.469,2.469 0 0 0 -1.605,0.583a2.5,2.5 0 0 0 -0.895,1.917a1.5,1.5 0 0 1 -3,0a5.5,5.5 0 0 1 5.507,-5.5a5.634,5.634 0 0 1 0.978,0.086a5.5,5.5 0 0 1 1.322,10.407a1.406,1.406 0 0 0 -0.807,1.276l0,1.731a1.5,1.5 0 0 1 -1.5,1.5z" fill="#fff" id="svg_4"/>
  <path d="m35.006,26a5.133,5.133 0 0 1 0.891,0.078a5,5 0 0 1 1.2,9.461a1.908,1.908 0 0 0 -1.097,1.73l0,1.731a1,1 0 0 1 -2,0l0,-1.73a3.914,3.914 0 0 1 2.257,-3.545a3,3 0 0 0 -0.705,-5.676a3.251,3.251 0 0 0 -0.552,-0.049a3,3 0 0 0 -3,3a1,1 0 0 1 -2,0a5,5 0 0 1 5.006,-5m0,-1l0,0a6,6 0 0 0 -6.006,6a2,2 0 0 0 4,0a2,2 0 0 1 0.715,-1.533a1.976,1.976 0 0 1 1.285,-0.467a2.257,2.257 0 0 1 0.382,0.033a2,2 0 0 1 0.456,3.782a4.918,4.918 0 0 0 -2.838,4.454l0,1.731a2,2 0 0 0 4,0l0,-1.73a0.9,0.9 0 0 1 0.517,-0.822a6,6 0 0 0 -1.447,-11.355a6.151,6.151 0 0 0 -1.063,-0.093l0,0l-0.001,0z" fill="#6e6e6e" id="svg_5"/>
  <path d="m35,45a2.013,2.013 0 0 1 -1.421,-0.6a1.983,1.983 0 0 1 1.427,-3.4a2,2 0 0 1 1.413,0.566a2.017,2.017 0 0 1 -1.419,3.434z" fill="#fff" id="svg_6"/>
  <path d="m35.005,41.5a1.49,1.49 0 0 1 1.059,0.419a1.518,1.518 0 0 1 0,2.128a1.506,1.506 0 1 1 -1.059,-2.547m0,-1a2.459,2.459 0 0 0 -2.505,2.491a2.518,2.518 0 1 0 2.505,-2.491l0,0z" fill="#6e6e6e" id="svg_7"/>
  <text fill="#005fbf" font-family="Tahoma" font-size="27" font-weight="600" id="e1_texte" stroke="teal" stroke-width="0px" x="9.159878" y="20.257593">лЪла</text>
 </g>
</svg>