<svg xmlns="http://www.w3.org/2000/svg" xmlns:xlink="http://www.w3.org/1999/xlink" version="1.1" id="Layer_1" x="0px" y="0px" viewBox="0 0 48 48" enable-background="new 0 0 48 48" xml:space="preserve" width="100%" height="100%" >
	<rect id="svgEditorBackground" x="0" y="0" width="48" height="48" style="fill:none; stroke: none;"/>
	<linearGradient id="SVGID_1_" gradientUnits="userSpaceOnUse" x1="6.2396" y1="6.6884" x2="34.791" y2="35.2398">
		<stop offset="0" style="stop-color:#FFFFFF"/>
		<stop offset="0.2323" style="stop-color:#FAFAFA"/>
		<stop offset="0.4964" style="stop-color:#EDEDED"/>
		<stop offset="0.775" style="stop-color:#D6D6D6"/>
		<stop offset="1" style="stop-color:#BEBEBE"/>
	</linearGradient>


	<linearGradient id="SVGID_2_" gradientUnits="userSpaceOnUse" x1="17.6716" y1="17.6715" x2="23.3284" y2="23.3284">
		<stop offset="0" style="stop-color:#FFFFFF"/>
		<stop offset="0.2214" style="stop-color:#F8F8F8"/>
		<stop offset="0.5415" style="stop-color:#E5E5E5"/>
		<stop offset="0.92" style="stop-color:#C6C6C6"/>
		<stop offset="1" style="stop-color:#BEBEBE"/>
	</linearGradient>

	<linearGradient id="SVGID_3_" gradientUnits="userSpaceOnUse" x1="26.1718" y1="26.1323" x2="43.8261" y2="43.7866">
		<stop offset="0" style="stop-color:#F2F2F2"/>
		<stop offset="0.5" style="stop-color:#CCCCCC"/>
		<stop offset="0.6296" style="stop-color:#C7C7C7"/>
		<stop offset="0.7792" style="stop-color:#B9B9B9"/>
		<stop offset="0.9383" style="stop-color:#A2A2A2"/>
		<stop offset="0.99" style="stop-color:#999999"/>
	</linearGradient>
	<path fill="url(#SVGID_3_)" stroke="#464646" stroke-linecap="round" stroke-linejoin="round" stroke-miterlimit="10" d="M43.324,38.001l4.176,-1.482v-3.12l-4.176,-1.482c-0.298,-0.105,-0.417,-0.424,-0.293,-0.685l1.899,-3.995l-2.207,-2.206l-3.995,1.901c-0.278,0.132,-0.592,-0.011,-0.686,-0.275L36.56,22.5H33.44l-1.482,4.155c-0.094,0.262,-0.419,0.399,-0.686,0.272l-3.995,-1.899l-2.207,2.207l1.898,3.995c0.122,0.256,0.003,0.582,-0.291,0.686L22.5,33.398v3.12l4.176,1.483c0.3,0.106,0.417,0.426,0.293,0.686l-1.899,3.996l2.207,2.208l3.995,-1.895c0.251,-0.119,0.576,-0.004,0.686,0.306L33.44,47.5h3.121l1.482,-4.197c0.118,-0.331,0.423,-0.438,0.686,-0.314l3.995,1.899l2.207,-2.207l-1.898,-3.995C42.91,38.428,43.031,38.104,43.324,38.001Z"/>
	<linearGradient id="SVGID_4_" gradientUnits="userSpaceOnUse" x1="32.5263" y1="32.5263" x2="37.4737" y2="37.4737">
		<stop offset="0" style="stop-color:#FFFFFF"/>
		<stop offset="0.2214" style="stop-color:#F8F8F8"/>
		<stop offset="0.5415" style="stop-color:#E5E5E5"/>
		<stop offset="0.92" style="stop-color:#C6C6C6"/>
		<stop offset="1" style="stop-color:#BEBEBE"/>
	</linearGradient>
	<circle fill="url(#SVGID_4_)" stroke="#464646" stroke-miterlimit="10" cx="35" cy="35" r="3.5"/>
	<path fill="url(#SVGID_3_)" stroke="#464646" stroke-linecap="round" stroke-linejoin="round" stroke-miterlimit="10" d="M21.060314312442404,32.96729213483146l4.176000000000002,-1.4819999999999958v-3.119999999999994l-4.176000000000002,-1.4819999999999993c-0.2980000000000018,-0.10500000000000043,-0.4170000000000016,-0.4239999999999995,-0.29299999999999216,-0.6849999999999952l1.899000000000001,-3.9950000000000045l-2.207000000000008,-2.2059999999999995l-3.9949999999999903,1.9010000000000034c-0.2780000000000058,0.1319999999999979,-0.5920000000000005,-0.011000000000002785,-0.6860000000000088,-0.2749999999999986l-1.4819999999999922,-4.157000000000007h-3.120000000000008l-1.4819999999999993,4.155000000000005c-0.0940000000000012,0.2619999999999969,-0.4189999999999934,0.39899999999999736,-0.6859999999999999,0.2719999999999949l-3.994999999999993,-1.899000000000001l-2.2070000000000007,2.2070000000000007l1.8980000000000032,3.9950000000000045c0.121999999999999,0.2560000000000002,0.003000000000001002,0.5819999999999972,-0.2910000000000039,0.6860000000000035l-4.176999999999996,1.4819999999999958v3.120000000000001l4.176000000000003,1.4829999999999863c0.3000000000000034,0.10600000000000875,0.4170000000000025,0.42600000000000193,0.29300000000000104,0.6859999999999928l-1.8990000000000036,3.9960000000000093l2.2070000000000007,2.2079999999999984l3.9949999999999983,-1.8949999999999818c0.25099999999999767,-0.11900000000001398,0.5760000000000005,-0.004000000000019099,0.6859999999999999,0.3059999999999832l1.4819999999999922,4.1980000000000075h3.1210000000000058l1.4819999999999993,-4.197000000000003c0.117999999999995,-0.33100000000000307,0.4230000000000018,-0.4380000000000024,0.6859999999999928,-0.31400000000000716l3.995000000000008,1.899000000000001l2.2069999999999936,-2.2069999999999936l-1.8979999999999961,-3.9949999999999903c-0.12300000000000466,-0.2580000000000098,-0.001999999999995339,-0.5820000000000078,0.2909999999999968,-0.6850000000000165Z" id="e47_path"/>
	<circle fill="url(#SVGID_4_)" stroke="#464646" stroke-miterlimit="10" cx="12.398379238561937" cy="29.96627426147461" r="3.5" id="e1_circle"/>
	<text style="fill:firebrick;font-family:Tahoma;font-size:22.50px;font-weight:600;fill-opacity:0.75;" x="0.5905635952949524" y="21.260089874267578" id="e1_texte">СТИ</text>
</svg>