<svg xmlns="http://www.w3.org/2000/svg" xmlns:xlink="http://www.w3.org/1999/xlink" version="1.1" id="Layer_1" x="0px" y="0px" viewBox="0 0 48 48" enable-background="new 0 0 48 48" xml:space="preserve" width="100%" height="100%" >
	<rect id="svgEditorBackground" x="0" y="0" width="48" height="48" style="fill:none; stroke: none;"/>
	<linearGradient id="SVGID_1_" gradientUnits="userSpaceOnUse" x1="6.2396" y1="6.6884" x2="34.791" y2="35.2398">
		<stop offset="0" style="stop-color:#FFFFFF"/>
		<stop offset="0.2323" style="stop-color:#FAFAFA"/>
		<stop offset="0.4964" style="stop-color:#EDEDED"/>
		<stop offset="0.775" style="stop-color:#D6D6D6"/>
		<stop offset="1" style="stop-color:#BEBEBE"/>
	</linearGradient>


	<linearGradient id="SVGID_2_" gradientUnits="userSpaceOnUse" x1="17.6716" y1="17.6715" x2="23.3284" y2="23.3284">
		<stop offset="0" style="stop-color:#73B4C8"/>
		<stop offset="0.1747" style="stop-color:#6AAEC3"/>
		<stop offset="0.4567" style="stop-color:#529EB5"/>
		<stop offset="0.8089" style="stop-color:#2C839F"/>
		<stop offset="1" style="stop-color:#147391"/>
	</linearGradient>

	<linearGradient id="SVGID_3_" gradientUnits="userSpaceOnUse" x1="26.1718" y1="26.1323" x2="43.8261" y2="43.7866">
		<stop offset="0" style="stop-color:#73B4C8"/>
		<stop offset="0.1747" style="stop-color:#6AAEC3"/>
		<stop offset="0.4567" style="stop-color:#529EB5"/>
		<stop offset="0.8089" style="stop-color:#2C839F"/>
		<stop offset="1" style="stop-color:#147391"/>
	</linearGradient>
	<path fill="url(#SVGID_3_)" stroke="#464646" stroke-linejoin="round" stroke-miterlimit="10" d="M43.324,38.001l4.176,-1.482v-3.12l-4.176,-1.482c-0.298,-0.105,-0.417,-0.424,-0.293,-0.685l1.899,-3.995l-2.207,-2.206l-3.995,1.901c-0.278,0.132,-0.592,-0.011,-0.686,-0.275L36.56,22.5H33.44l-1.482,4.155c-0.094,0.262,-0.419,0.399,-0.686,0.272l-3.995,-1.899l-2.207,2.207l1.898,3.995c0.122,0.256,0.003,0.582,-0.291,0.686L22.5,33.398v3.12l4.176,1.483c0.3,0.106,0.417,0.426,0.293,0.686l-1.899,3.996l2.207,2.208l3.995,-1.895c0.251,-0.119,0.576,-0.004,0.686,0.306L33.44,47.5h3.121l1.482,-4.197c0.118,-0.331,0.423,-0.438,0.686,-0.314l3.995,1.899l2.207,-2.207l-1.898,-3.995C42.91,38.428,43.031,38.104,43.324,38.001Z"/>
	<linearGradient id="SVGID_4_" gradientUnits="userSpaceOnUse" x1="32.5263" y1="32.5263" x2="37.4737" y2="37.4737">
		<stop offset="0" style="stop-color:#FFFFFF"/>
		<stop offset="0.2214" style="stop-color:#F8F8F8"/>
		<stop offset="0.5415" style="stop-color:#E5E5E5"/>
		<stop offset="0.92" style="stop-color:#C6C6C6"/>
		<stop offset="1" style="stop-color:#BEBEBE"/>
	</linearGradient>
	<circle fill="url(#SVGID_4_)" stroke="#464646" stroke-miterlimit="10" cx="35.00000227167365" cy="34.99999764260282" r="3.5"/>
	<path fill="url(#SVGID_3_)" stroke="#464646" stroke-linejoin="round" stroke-miterlimit="10" d="M21.15020195289184,33.05717977528093l4.1760000000000055,-1.4819999999999993v-3.1200000000000045l-4.1760000000000055,-1.4820000000000064c-0.2980000000000018,-0.10499999999999687,-0.4170000000000016,-0.4239999999999995,-0.2929999999999886,-0.6849999999999952l1.8989999999999903,-3.995000000000001l-2.2070000000000007,-2.2059999999999995l-3.9950000000000045,1.901000000000007c-0.2779999999999916,0.1319999999999908,-0.5919999999999987,-0.01100000000000989,-0.6859999999999928,-0.2750000000000057l-1.4819999999999993,-4.157000000000011h-3.1200000000000045l-1.4819999999999993,4.155000000000001c-0.09400000000000652,0.262000000000004,-0.41899999999999693,0.39900000000001157,-0.6859999999999999,0.2719999999999949l-3.9949999999999886,-1.8989999999999867l-2.207000000000008,2.2070000000000007l1.898000000000005,3.9949999999999974c0.12199999999999633,0.2560000000000002,0.0029999999999992255,0.5820000000000007,-0.2910000000000048,0.6860000000000035l-4.176999999999993,1.4819999999999958v3.1200000000000188l4.175999999999999,1.4829999999999899c0.29999999999999893,0.10599999999999454,0.4169999999999998,0.42600000000000193,0.29300000000000015,0.6859999999999644l-1.8990000000000027,3.9960000000000377l2.2070000000000043,2.2079999999999984l3.9949999999999886,-1.894999999999989c0.25099999999999767,-0.11900000000002109,0.5760000000000076,-0.003999999999997783,0.6860000000000142,0.30599999999997607l1.481999999999985,4.198000000000029h3.120999999999995l1.4820000000000029,-4.197000000000024c0.11800000000000566,-0.33100000000000307,0.42299999999999116,-0.4379999999999953,0.6860000000000035,-0.31399999999999295l3.9950000000000045,1.899000000000001l2.2070000000000007,-2.207000000000008l-1.8980000000000103,-3.9949999999999903c-0.12300000000000111,-0.2580000000000098,-0.0019999999999846807,-0.5820000000000007,0.2910000000000039,-0.6850000000000023Z" id="e47_path"/>
	<circle fill="url(#SVGID_4_)" stroke="#464646" stroke-miterlimit="10" cx="12.68966475339348" cy="29.78652572631836" r="3.5" id="e1_circle"/>
	<text style="fill:firebrick;font-family:Tahoma;font-size:22.50px;font-weight:600;fill-opacity:0.75;" x="0.6696410179138184" y="21.181015014648438" id="e1_texte">СТИ</text>
</svg>